<?xml version="1.0" encoding="UTF-8" standalone="no"?>
<!-- Created with Inkscape (http://www.inkscape.org/) -->

<svg
   xmlns:dc="http://purl.org/dc/elements/1.1/"
   xmlns:cc="http://creativecommons.org/ns#"
   xmlns:rdf="http://www.w3.org/1999/02/22-rdf-syntax-ns#"
   xmlns:svg="http://www.w3.org/2000/svg"
   xmlns="http://www.w3.org/2000/svg"
   xmlns:xlink="http://www.w3.org/1999/xlink"
   version="1.1"
   width="800"
   height="600"
   id="svg6112">
  <defs
     id="defs6114" />
  <metadata
     id="metadata6117">
    <rdf:RDF>
      <cc:Work
         rdf:about="">
        <dc:format>image/svg+xml</dc:format>
        <dc:type
           rdf:resource="http://purl.org/dc/dcmitype/StillImage" />
        <dc:title></dc:title>
      </cc:Work>
    </rdf:RDF>
  </metadata>
  <g
     transform="translate(320,10)"
     id="sample-solenoid">
    <use
       id="solenoid-anchor"
       x="0"
       y="0"
       width="800"
       height="600"
       xlink:href="#anchor" />
    <g
       id="solenoid">
      <rect
         width="20"
         height="100"
         x="-110"
         y="0"
         id="rect3788" />
      <rect
         width="20"
         height="100"
         x="90"
         y="0"
         id="rect3790" />
      <rect
         width="180"
         height="80"
         x="-90"
         y="10"
         id="rect3792" />
      <path
         d="M -90,90 -80,10"
         id="path3794" />
      <path
         d="M -80,90 -70,10"
         id="path3796" />
      <path
         d="M -70,90 -60,10"
         id="path3798" />
      <path
         d="M -60,90 -50,10"
         id="path3800" />
      <path
         d="M -50,90 -40,10"
         id="path3802" />
      <path
         d="M -40,90 -30,10"
         id="path3804" />
      <path
         d="M -30,90 -20,10"
         id="path3806" />
      <path
         d="M -20,90 -10,10"
         id="path3808" />
      <path
         d="M -10,90 0,10"
         id="path3810" />
      <path
         d="M 0,90 10,10"
         id="path3812" />
      <path
         d="M 10,90 20,10"
         id="path3814" />
      <path
         d="M 20,90 30,10"
         id="path3816" />
      <path
         d="M 30,90 40,10"
         id="path3818" />
      <path
         d="M 40,90 50,10"
         id="path3820" />
      <path
         d="M 50,90 60,10"
         id="path3822" />
      <path
         d="M 60,90 70,10"
         id="path3824" />
      <path
         d="M 70,90 80,10"
         id="path3826" />
      <path
         d="M 80,90 90,10"
         id="path3828" />
    </g>
    <text
       x="0"
       y="140"
       id="solenoid-label"
       xml:space="preserve"
       style="font-size:20px;font-style:normal;font-variant:normal;font-weight:bold;font-stretch:normal;text-align:center;line-height:125%;letter-spacing:0px;word-spacing:0px;text-anchor:middle;fill:#000000;fill-opacity:1;stroke:none;font-family:Overpass;-inkscape-font-specification:Overpass Bold"><tspan
         x="0"
         y="140"
         id="tspan6171">#solenoid</tspan></text>
  </g>
  <g
     transform="translate(80,70)"
     id="sample-anchor">
    <path
       d="m -0.5,-5 0,4.5 -4.5,0 0,1 4.5,0 0,4.5 1,0 0,-4.5 4.5,0 0,-1 -4.5,0 0,-4.5 -1,0 z"
       id="anchor"
       style="font-size:medium;font-style:normal;font-variant:normal;font-weight:normal;font-stretch:normal;text-indent:0;text-align:start;text-decoration:none;line-height:normal;letter-spacing:normal;word-spacing:normal;text-transform:none;direction:ltr;block-progression:tb;writing-mode:lr-tb;text-anchor:start;baseline-shift:baseline;color:#000000;fill:#ff0000;fill-opacity:1;stroke:none;stroke-width:1px;marker:none;visibility:visible;display:inline;overflow:visible;enable-background:accumulate;font-family:Sans;-inkscape-font-specification:Sans" />
    <text
       x="0"
       y="80"
       id="anchor-label"
       xml:space="preserve"
       style="font-size:20px;font-style:normal;font-variant:normal;font-weight:bold;font-stretch:normal;text-align:center;line-height:125%;letter-spacing:0px;word-spacing:0px;text-anchor:middle;fill:#000000;fill-opacity:1;stroke:none;font-family:Overpass;-inkscape-font-specification:Sans Bold"><tspan
         x="0"
         y="80"
         id="tspan6256">#anchor</tspan></text>
  </g>
  <g
     transform="translate(560,70)"
     id="sample-accelerate-right">
    <g
       id="accelerate-right">
      <path
         d="M -20,-10 -10,0 -20,10 -10,10 0,0 -10,-10 z"
         id="path6387"
         style="fill-opacity:1" />
      <path
         d="M 0,-10 10,0 0,10 10,10 20,0 10,-10 z"
         id="path6462"
         style="fill-opacity:1" />
    </g>
    <text
       x="0"
       y="80"
       id="accelerate-right-label"
       xml:space="preserve"
       style="font-size:20px;font-style:normal;font-variant:normal;font-weight:bold;font-stretch:normal;text-align:center;line-height:125%;letter-spacing:0px;word-spacing:0px;text-anchor:middle;fill:#000000;fill-opacity:1;stroke:none;font-family:Overpass;-inkscape-font-specification:Sans Bold"><tspan
         x="0"
         y="80"
         id="tspan6472">#accelerate-right</tspan></text>
    <use
       id="accelerate-right-anchor"
       x="0"
       y="0"
       width="800"
       height="600"
       xlink:href="#anchor" />
  </g>
  <g
     transform="translate(800,70)"
     id="sample-accelerate-left">
    <g
       id="accelerate-left">
      <path
         d="M -10,-10 -20,0 -10,10 0,10 -10,0 0,-10 z"
         id="path6489"
         style="fill-opacity:1" />
      <path
         d="M 10,-10 0,0 10,10 20,10 10,0 20,-10 z"
         id="path6491"
         style="fill-opacity:1" />
    </g>
    <text
       x="0"
       y="80"
       id="accelerate-left-label"
       xml:space="preserve"
       style="font-size:20px;font-style:normal;font-variant:normal;font-weight:bold;font-stretch:normal;text-align:center;line-height:125%;letter-spacing:0px;word-spacing:0px;text-anchor:middle;fill:#000000;fill-opacity:1;stroke:none;font-family:Overpass;-inkscape-font-specification:Sans Bold"><tspan
         x="0"
         y="80"
         id="tspan6495">#accelerate-left</tspan></text>
    <use
       id="accelerate-left-anchor"
       x="0"
       y="0"
       width="800"
       height="600"
       xlink:href="#anchor" />
  </g>
</svg>
